<?xml version="1.0" standalone="no"?>
<!DOCTYPE svg PUBLIC "-//W3C//DTD SVG 20010904//EN"
 "http://www.w3.org/TR/2001/REC-SVG-20010904/DTD/svg10.dtd">
<svg version="1.0" xmlns="http://www.w3.org/2000/svg"
 width="720.000000pt" height="720.000000pt" viewBox="0 0 720.000000 720.000000"
 preserveAspectRatio="xMidYMid meet">

<g transform="translate(0.000000,720.000000) scale(0.100000,-0.100000)"
fill="#000000" stroke="none">
<path d="M960 4849 c-102 -20 -201 -88 -260 -181 -74 -113 -71 -74 -68 -1093
l3 -910 32 -68 c43 -90 119 -169 202 -210 l66 -32 2635 0 2635 0 67 32 c119
56 209 171 237 301 8 37 11 314 11 915 0 939 0 934 -57 1039 -53 98 -169 183
-281 207 -65 13 -5152 14 -5222 0z m658 -831 c42 -13 88 -52 109 -92 21 -39
20 -136 -1 -195 -22 -60 -80 -136 -124 -162 -20 -12 -38 -23 -39 -24 -2 -1 7
-19 18 -41 58 -110 -32 -294 -182 -370 -201 -102 -388 -59 -434 98 -26 92 -23
99 70 130 103 35 105 34 105 -5 0 -131 200 -119 255 16 15 36 15 38 -9 62 -23
23 -33 25 -106 25 -73 0 -81 2 -76 18 2 9 14 49 25 89 l21 71 93 4 c84 3 97 6
130 31 36 28 77 92 77 121 0 24 -50 56 -87 56 -52 0 -94 -22 -148 -78 l-49
-50 -68 34 -67 34 21 37 c34 57 120 136 181 166 90 44 194 53 285 25z m722
-463 l0 -466 -92 3 -93 3 4 103 3 102 -155 0 -155 0 -67 -105 -67 -105 -90 0
c-64 0 -89 3 -86 12 2 6 134 215 294 464 l289 453 108 0 107 1 0 -465z m550
462 c0 -1 -56 -168 -125 -371 -69 -202 -125 -369 -125 -372 0 -2 89 -4 198 -4
l197 0 126 373 126 372 93 3 c72 2 91 0 88 -10 -12 -31 -238 -726 -238 -732 0
-3 34 -6 75 -6 88 0 86 25 16 -196 l-47 -149 -92 -3 c-51 -1 -92 -1 -92 1 0 2
11 37 25 77 14 40 25 77 25 82 0 4 -164 8 -365 8 -259 0 -365 3 -365 11 0 8
270 837 295 907 3 8 32 12 95 12 49 0 90 -1 90 -3z m1420 -9 c0 -7 -10 -47
-23 -88 l-23 -75 -208 -5 -208 -5 -34 -84 c-19 -47 -34 -88 -34 -93 0 -4 93
-8 206 -8 165 0 205 -3 201 -13 -3 -7 -13 -42 -22 -78 -10 -35 -23 -70 -28
-77 -8 -10 -58 -12 -209 -12 -110 1 -201 0 -203 -2 -4 -4 -75 -187 -75 -194 0
-2 92 -4 205 -4 113 0 205 -1 205 -2 0 -2 -7 -25 -15 -53 -9 -27 -20 -67 -26
-87 l-10 -38 -294 0 c-229 0 -295 3 -295 12 0 11 267 832 291 895 l9 23 295 0
c229 0 295 -3 295 -12z m280 8 c0 -3 -24 -76 -54 -163 -30 -87 -57 -168 -61
-180 l-6 -23 189 0 189 0 48 138 c26 75 55 158 64 185 l16 47 91 0 92 0 -73
-222 c-41 -123 -109 -331 -152 -463 l-79 -240 -92 -3 c-51 -1 -92 -1 -92 2 0
2 29 87 64 190 l65 185 -186 3 c-102 2 -188 1 -192 -2 -4 -3 -36 -89 -71 -192
l-64 -188 -88 0 c-57 0 -88 4 -88 11 0 8 272 845 295 907 3 8 32 12 95 12 49
0 90 -2 90 -4z m880 0 c0 -2 -50 -149 -110 -326 -61 -178 -109 -324 -108 -325
2 -1 133 145 292 326 l290 329 108 0 c59 0 108 -4 108 -9 0 -5 -68 -214 -150
-465 l-151 -456 -90 0 c-89 0 -90 0 -83 23 4 12 53 159 110 327 56 167 102
306 100 307 -1 1 -132 -146 -292 -327 l-289 -329 -107 -1 c-67 0 -108 4 -108
10 0 11 289 899 297 913 4 7 183 11 183 3z m960 -3 c0 -5 -44 -142 -97 -305
l-97 -298 -88 0 c-53 0 -88 4 -88 10 0 6 32 108 71 228 39 119 82 252 96 295
l25 77 89 0 c49 0 89 -3 89 -7z m-250 -646 c14 -7 33 -28 43 -47 54 -107 -73
-255 -204 -237 -48 6 -74 28 -89 73 -40 121 134 269 250 211z"/>
<path d="M2064 3668 c-54 -89 -103 -168 -107 -175 -6 -10 13 -13 96 -13 l104
0 6 172 c3 95 4 174 3 176 -2 1 -48 -71 -102 -160z"/>
</g>
</svg>
